<?xml version="1.0" encoding="utf-8"?>
<!-- Generator: Adobe Illustrator 23.1.1, SVG Export Plug-In . SVG Version: 6.00 Build 0)  -->
<svg version="1.1" id="Layer_1" xmlns="http://www.w3.org/2000/svg" xmlns:xlink="http://www.w3.org/1999/xlink" x="0px" y="0px"
	 viewBox="0 0 425.9 131.9" style="enable-background:new 0 0 425.9 131.9;" xml:space="preserve">
<style type="text/css">
	.st0{fill:#383838;}
	.st1{fill:#1C1C1C;}
	.st2{fill:#FFE2BA;}
	.st3{display:none;}
	.st4{display:inline;fill:#336172;}
	.st5{fill:#489AB7;}
	.st6{fill:#43806D;}
	.st7{fill:#E2C0D7;}
	.st8{fill:#35423E;}
	.st9{fill:#666666;}
	.st10{fill:#2E6855;}
</style>
<rect class="st0" width="425.9" height="131.9"/>
<rect x="347.9" y="13.1" class="st1" width="66.3" height="105.7"/>
<path class="st2" d="M357,102l-6.7-10.6L393,66.2l-42.7-25.8l6.7-10.6l54.8,34v5.9L357,102z"/>
<g class="st3">
	<rect x="-25.2" y="-8.1" class="st4" width="252" height="143.6"/>
</g>
<rect x="72.7" y="-52.2" class="st5" width="22.3" height="12.5"/>
<rect x="72.7" y="-39.6" class="st6" width="22.3" height="12.5"/>
<rect x="72.7" y="-27.1" class="st7" width="22.3" height="12.6"/>
<text transform="matrix(1 0 0 1 -12.6546 -20.1286)" class="st7" style="font-family:'AndaleMono'; font-size:26.3004px;">&lt;</text>
<text transform="matrix(1 0 0 1 3.1254 -20.1286)" class="st7" style="font-family:'AndaleMono'; font-size:26.3004px; letter-spacing:-2;">MIDJ</text>
<text transform="matrix(1 0 0 1 50.4754 -20.1286)" class="st7" style="font-family:'AndaleMono'; font-size:26.3004px;">&gt;</text>
<rect x="63.1" y="-95.1" class="st8" width="79.2" height="24.7"/>
<rect x="127.8" y="-92" class="st9" width="11.6" height="18.4"/>
<path class="st7" d="M77.8-76.6l-9.6-5.8v-1.5l9.6-5.7v1.8L70-83l7.7,4.6V-76.6z"/>
<path class="st7" d="M92.7-73.8h-2v-15.5L88-81.9h-2l-2.7-7.4v15.5h-2v-18.1H84l3,8.3l3-8.3h2.7V-73.8z"/>
<path class="st7" d="M102.8-73.8h-8.2v-1.8h3.1v-14.4h-3.1v-1.8h8.2v1.8h-3v14.4h3V-73.8z"/>
<path class="st7" d="M105.4-91.9h3.6c2.4,0,4.3,0.8,5.7,2.4s2.1,3.8,2.1,6.7c0,2.9-0.7,5.1-2.2,6.7s-3.3,2.4-5.6,2.4h-3.7
	L105.4-91.9L105.4-91.9z M107.5-75.6h1.5c1.7,0,3.1-0.6,4.1-1.9c1-1.3,1.5-3,1.5-5.3c0-2.2-0.5-4-1.5-5.3s-2.4-1.9-4.1-1.9h-1.5
	L107.5-75.6L107.5-75.6z"/>
<path class="st7" d="M125.6-78.6c0,1.7-0.4,2.9-1.3,3.8c-0.9,0.9-2.1,1.3-3.8,1.3c-1.5,0-2.8-0.3-4-0.9l0.6-1.7
	c1,0.5,2.1,0.8,3.4,0.8c1.1,0,1.8-0.3,2.3-0.8c0.5-0.6,0.7-1.4,0.7-2.6v-13.2h2.1L125.6-78.6L125.6-78.6z"/>
<path class="st7" d="M138.4-82.3l-9.6,5.8v-1.9l7.7-4.6l-7.7-4.7v-1.8l9.6,5.7V-82.3z"/>
<path class="st2" d="M5.8,70v-5.9l54.8-34l6.7,10.6L24.6,66.4l42.7,25.2l-6.7,10.6L5.8,70z"/>
<path class="st2" d="M125.7,60.8l0.6-12.8h-0.7l-13.2,21.5h-2.8L95.9,48h-0.6L96,59.5v45.1H80.7V22.4h16.3l14.1,22.8h0.5l14-22.8
	h16.2v82.2h-16.1V60.8z"/>
<path class="st2" d="M152.8,90.3h20.8V36.7h-20.8V22.4h57.8v14.3h-20.9v53.5h20.9v14.3h-57.8V90.3z"/>
<path class="st2" d="M222.8,22.4c0.7-0.1,1.9-0.2,3.7-0.4c1.8-0.2,3.8-0.3,6-0.4c2.2-0.1,4.5-0.2,6.9-0.3c2.4-0.1,4.5-0.1,6.4-0.1
	c7.3,0,13.3,1.1,18.1,3.2c4.8,2.1,8.6,5,11.3,8.7c2.8,3.7,4.7,8.1,5.8,13.1c1.1,5,1.6,10.5,1.6,16.5c0,5.4-0.5,10.7-1.6,15.9
	c-1.1,5.2-3.1,9.8-5.9,13.8c-2.9,4-6.8,7.3-11.9,9.7s-11.5,3.7-19.4,3.7c-1.3,0-2.9,0-4.8-0.1c-2-0.1-4-0.2-6-0.3
	c-2-0.1-4-0.2-5.9-0.4c-1.9-0.1-3.3-0.3-4.3-0.4V22.4z M246.4,35.6c-1.5,0-2.9,0.1-4.3,0.2c-1.4,0.1-2.5,0.2-3.2,0.3v55.1
	c0.3,0.1,0.8,0.1,1.4,0.2c0.6,0,1.3,0.1,1.9,0.1c0.7,0,1.3,0.1,1.9,0.1c0.6,0,1.1,0.1,1.5,0.1c4.5,0,8.2-0.8,10.9-2.5
	c2.7-1.7,4.7-3.9,6-6.6c1.3-2.7,2.2-5.8,2.6-9.3c0.4-3.4,0.6-6.9,0.6-10.3c0-3-0.2-6.1-0.5-9.3c-0.4-3.2-1.2-6.1-2.5-8.8
	c-1.3-2.7-3.2-4.9-5.8-6.6C254.4,36.4,250.9,35.6,246.4,35.6z"/>
<path class="st2" d="M288.2,22.4h49.1v52.4c0,4.5-0.6,8.7-1.7,12.6c-1.1,3.9-3.2,7.4-6.2,10.5c-1.9,1.9-3.9,3.4-6,4.5
	c-2.2,1.1-4.2,1.9-6.3,2.5c-2,0.5-4,0.9-5.8,1.1c-1.8,0.2-3.3,0.2-4.5,0.2c-3.8,0-7.4-0.4-10.9-1.2c-3.5-0.8-7-2.3-10.6-4.4
	l5.8-12.9c3,1.7,5.5,2.9,7.7,3.4c2.2,0.5,4.6,0.8,7.5,0.8c1.7,0,3.6-0.3,5.6-1c2-0.7,3.7-1.8,5.2-3.3c2.7-3,4.1-7.1,4.1-12.4V36.7
	h-33V22.4z"/>
<g>
	<rect x="-117.9" y="246.4" class="st6" width="195.6" height="62"/>
	<rect x="39" y="254.3" class="st10" width="31.8" height="46.3"/>
	<text transform="matrix(0.983 0 0 1 -111.446 295.3318)" style="fill:#D8CC60; font-family:'PTMono-Bold'; font-size:51.4386px;">&lt;MIDJ&gt;</text>
</g>
</svg>
