<?xml version="1.0" encoding="utf-8"?>
<!-- Generator: Adobe Illustrator 23.1.1, SVG Export Plug-In . SVG Version: 6.00 Build 0)  -->
<svg version="1.1" id="Layer_1" xmlns="http://www.w3.org/2000/svg" xmlns:xlink="http://www.w3.org/1999/xlink" x="0px" y="0px"
	 viewBox="0 0 425.9 131.9" style="enable-background:new 0 0 425.9 131.9;" xml:space="preserve">
<style type="text/css">
	.st0{fill:#383838;}
	.st1{fill:#1C1C1C;}
	.st2{fill:#FFE2BA;}
	.st3{display:none;}
	.st4{display:inline;fill:#336172;}
</style>
<rect class="st0" width="425.9" height="131.9"/>
<rect x="347.9" y="13.1" class="st1" width="66.3" height="105.7"/>
<path class="st2" d="M357,102l-6.7-10.6L393,66.2l-42.7-25.8l6.7-10.6l54.8,34v5.9L357,102z"/>
<g class="st3">
	<rect x="-25.2" y="-8.1" class="st4" width="252" height="143.6"/>
</g>
<path class="st2" d="M5.8,70v-5.9l54.8-34l6.7,10.6L24.6,66.4l42.7,25.2l-6.7,10.6L5.8,70z"/>
<path class="st2" d="M125.7,60.8l0.6-12.8h-0.7l-13.2,21.5h-2.8L95.9,48h-0.6L96,59.5v45.1H80.7V22.4H97l14.1,22.8h0.5l14-22.8h16.2
	v82.2h-16.1C125.7,104.6,125.7,60.8,125.7,60.8z"/>
<path class="st2" d="M152.8,90.3h20.8V36.7h-20.8V22.4h57.8v14.3h-20.9v53.5h20.9v14.3h-57.8V90.3z"/>
<path class="st2" d="M222.8,22.4c0.7-0.1,1.9-0.2,3.7-0.4c1.8-0.2,3.8-0.3,6-0.4s4.5-0.2,6.9-0.3c2.4-0.1,4.5-0.1,6.4-0.1
	c7.3,0,13.3,1.1,18.1,3.2c4.8,2.1,8.6,5,11.3,8.7c2.8,3.7,4.7,8.1,5.8,13.1c1.1,5,1.6,10.5,1.6,16.5c0,5.4-0.5,10.7-1.6,15.9
	c-1.1,5.2-3.1,9.8-5.9,13.8c-2.9,4-6.8,7.3-11.9,9.7s-11.5,3.7-19.4,3.7c-1.3,0-2.9,0-4.8-0.1c-2-0.1-4-0.2-6-0.3
	c-2-0.1-4-0.2-5.9-0.4c-1.9-0.1-3.3-0.3-4.3-0.4L222.8,22.4L222.8,22.4z M246.4,35.6c-1.5,0-2.9,0.1-4.3,0.2
	c-1.4,0.1-2.5,0.2-3.2,0.3v55.1c0.3,0.1,0.8,0.1,1.4,0.2c0.6,0,1.3,0.1,1.9,0.1c0.7,0,1.3,0.1,1.9,0.1c0.6,0,1.1,0.1,1.5,0.1
	c4.5,0,8.2-0.8,10.9-2.5c2.7-1.7,4.7-3.9,6-6.6s2.2-5.8,2.6-9.3c0.4-3.4,0.6-6.9,0.6-10.3c0-3-0.2-6.1-0.5-9.3
	c-0.4-3.2-1.2-6.1-2.5-8.8s-3.2-4.9-5.8-6.6C254.4,36.4,250.9,35.6,246.4,35.6z"/>
<path class="st2" d="M288.2,22.4h49.1v52.4c0,4.5-0.6,8.7-1.7,12.6s-3.2,7.4-6.2,10.5c-1.9,1.9-3.9,3.4-6,4.5
	c-2.2,1.1-4.2,1.9-6.3,2.5c-2,0.5-4,0.9-5.8,1.1s-3.3,0.2-4.5,0.2c-3.8,0-7.4-0.4-10.9-1.2c-3.5-0.8-7-2.3-10.6-4.4l5.8-12.9
	c3,1.7,5.5,2.9,7.7,3.4s4.6,0.8,7.5,0.8c1.7,0,3.6-0.3,5.6-1s3.7-1.8,5.2-3.3c2.7-3,4.1-7.1,4.1-12.4V36.7h-33L288.2,22.4
	L288.2,22.4z"/>
</svg>
