<svg id="Layer_1" data-name="Layer 1" xmlns="http://www.w3.org/2000/svg" viewBox="0 0 207.19 308.41"><defs><style>.cls-1{fill:#bd8662;}</style></defs><path height="56.693px" class="cls-1" d="M112.42,168.42A59.43,59.43,0,1,1,171.85,109,59.49,59.49,0,0,1,112.42,168.42Zm0-110.62a51.2,51.2,0,1,0,51.2,51.2A51.26,51.26,0,0,0,112.42,57.8Z" transform="translate(-8.83 -5.4)"/><path class="cls-1" d="M112.43,313.81h0c-16.15,0-57.51-76.66-59.26-79.92C39.83,209.08,8.83,147.24,8.83,109A103.6,103.6,0,1,1,216,109c0,38.23-31,100.08-44.33,124.89C169.94,237.15,128.58,313.79,112.43,313.81Zm0-300.18A95.49,95.49,0,0,0,17.06,109c0,60.83,82,192.43,95.37,196.54,13.32-4.11,95.36-135.71,95.36-196.54A95.49,95.49,0,0,0,112.43,13.63Z" transform="translate(-8.83 -5.4)"/></svg>